REM MD5 76d06a9d5ba22ec236cfd7eb9cf81bd7
FILE "Euro Demo Five (Germany).bin" BINARY
  TRACK 01 MODE2/2352
    INDEX 01 00:00:00
  TRACK 02 AUDIO
    INDEX 00 16:03:56
    INDEX 01 16:05:56
  TRACK 03 AUDIO
    INDEX 00 17:04:03
    INDEX 01 17:06:03
  TRACK 04 AUDIO
    INDEX 00 20:39:33
    INDEX 01 20:41:33
REM LEADOUT 23:51:42
